<?xml version="1.0" standalone="no"?>
<!DOCTYPE svg PUBLIC "-//W3C//DTD SVG 20010904//EN"
  "http://www.w3.org/TR/2001/REC-SVG-20010904/DTD/svg10.dtd">
<svg version="1.0" xmlns="http://www.w3.org/2000/svg"
     width="849.000000pt" height="566.000000pt" viewBox="0 0 849.000000 566.000000"
     preserveAspectRatio="xMidYMid meet">

  <g transform="translate(0.000000,566.000000) scale(0.100000,-0.100000)"
     fill="#000000" stroke="none">
    <path d="M880 5647 c-53 -18 -63 -27 -110 -97 -53 -78 -169 -196 -265 -268
-89 -67 -227 -137 -300 -152 -70 -15 -115 -52 -150 -125 -30 -64 -55 -164 -55
-222 0 -54 66 -226 122 -317 l43 -70 69 -13 c132 -24 201 -95 226 -232 6 -34
10 -529 9 -1355 l0 -1301 -190 -180 c-149 -141 -189 -185 -189 -205 0 -41 138
-522 155 -539 12 -13 24 -13 72 -4 156 31 142 34 245 -49 51 -41 145 -119 208
-172 257 -217 426 -306 579 -306 238 1 507 146 809 435 311 298 341 389 342
1043 l0 262 48 0 c39 0 75 -14 202 -76 256 -125 353 -148 505 -121 108 20 179
49 272 109 84 55 205 167 249 229 21 31 25 46 21 74 -4 26 -3 34 6 28 7 -4 35
-21 62 -39 201 -128 418 -173 755 -160 148 6 171 5 221 -13 73 -25 125 -58
171 -109 49 -54 58 -100 29 -159 -56 -117 -204 -87 -484 96 -198 130 -282 161
-435 161 -65 0 -108 -6 -146 -19 -152 -53 -420 -292 -554 -493 -100 -152 -170
-297 -183 -381 -22 -140 42 -402 119 -489 33 -38 101 -18 234 70 136 89 158
85 558 -91 263 -116 423 -159 585 -159 277 -1 453 68 649 253 193 182 324 424
395 725 28 122 51 325 51 456 l0 108 26 0 c14 0 99 -36 189 -79 213 -104 283
-126 400 -125 108 2 194 23 289 72 39 20 74 38 77 40 4 2 9 -160 12 -360 3
-272 9 -389 21 -468 33 -205 88 -372 168 -508 54 -92 179 -211 274 -260 186
-96 443 -115 637 -47 237 82 442 322 511 598 21 82 35 241 29 327 -5 67 -127
479 -164 552 -24 48 -66 76 -133 90 -108 23 -192 -32 -274 -180 -57 -102 -103
-148 -133 -131 -12 6 -31 32 -42 57 -22 46 -22 57 -25 654 l-3 608 314 0 c291
0 315 1 330 18 10 10 17 23 17 28 0 5 29 85 65 177 l65 168 0 274 0 274 -183
162 c-100 89 -190 172 -199 183 -16 20 -29 21 -187 24 l-171 3 0 412 0 411
-58 174 c-81 247 -116 281 -282 282 -146 0 -177 -36 -239 -280 -90 -353 -207
-607 -386 -835 -82 -105 -261 -276 -361 -345 -43 -30 -84 -61 -91 -70 -9 -11
-12 -109 -13 -382 l0 -368 51 -94 50 -95 -58 20 c-80 29 -206 29 -288 0 -124
-44 -247 -132 -411 -293 l-92 -90 -78 55 c-44 30 -103 67 -133 82 -67 33 -240
91 -304 100 -47 7 -66 25 -26 25 39 0 201 60 301 111 145 75 327 199 386 264
57 63 77 116 68 180 -11 68 -46 162 -76 203 l-29 40 -113 0 c-185 0 -362 48
-618 167 -232 109 -421 151 -635 142 -198 -8 -328 -52 -480 -162 -341 -246
-447 -477 -424 -920 3 -60 5 -111 4 -113 -1 -1 -49 32 -106 74 -182 134 -307
178 -440 154 -35 -7 -80 -18 -99 -26 -24 -11 -31 -11 -22 -3 6 7 12 31 12 54
0 54 -67 471 -80 495 -13 25 -59 60 -79 60 -20 0 -65 36 -255 204 -183 163
-224 194 -307 240 -92 50 -169 70 -269 69 -102 0 -210 -33 -325 -98 l-75 -43
0 673 0 674 -109 258 c-120 285 -125 291 -222 312 -62 14 -104 13 -149 -2z
m140 -28 c28 -6 62 -21 76 -32 15 -14 62 -112 129 -270 l105 -248 0 -694 c0
-382 2 -695 3 -695 2 0 42 22 88 50 93 56 218 104 294 114 28 4 77 3 110 -3
139 -22 253 -88 430 -247 216 -195 289 -254 328 -265 20 -5 44 -21 53 -34 15
-23 83 -415 84 -481 0 -22 -15 -50 -55 -101 l-54 -70 97 49 c125 63 196 76
292 54 88 -20 154 -53 260 -131 91 -67 179 -125 191 -125 4 0 1 24 -7 53 -21
72 -21 347 -1 447 20 96 56 195 98 267 79 134 334 350 478 404 127 47 170 54
336 53 138 0 174 -4 265 -26 123 -31 207 -61 305 -110 213 -107 395 -158 595
-167 l145 -6 31 -63 c44 -88 60 -171 45 -224 -25 -81 -201 -220 -431 -338
-188 -96 -291 -124 -445 -118 -133 5 -177 21 -331 115 -186 113 -243 126 -300
69 -28 -28 -34 -41 -34 -78 0 -94 57 -113 399 -133 252 -15 372 -31 503 -64
160 -41 316 -117 411 -201 l47 -42 138 133 c192 187 313 263 457 290 91 17
228 -19 317 -82 l31 -22 -16 24 c-8 13 -45 80 -81 147 l-66 124 2 360 3 361
95 68 c117 84 251 207 328 302 191 234 339 542 417 867 36 155 61 214 101 250
32 28 41 30 109 30 90 0 145 -20 178 -63 13 -18 49 -109 80 -202 l57 -170 0
-423 0 -422 170 0 170 0 200 -178 199 -177 1 -263 0 -263 -64 -167 c-35 -92
-66 -175 -70 -184 -5 -17 -30 -18 -331 -18 l-325 0 0 -594 c0 -349 4 -615 10
-645 14 -76 39 -121 74 -136 60 -25 107 13 178 147 67 126 141 177 235 163 36
-5 56 -16 84 -44 33 -32 44 -61 109 -260 40 -124 76 -254 81 -290 19 -130 -16
-351 -75 -485 -63 -141 -201 -303 -319 -374 -120 -72 -279 -108 -427 -96 -448
35 -690 343 -750 953 -5 57 -10 252 -10 433 l0 330 -32 -22 c-111 -73 -274
-128 -384 -130 -66 0 -195 43 -359 122 -128 61 -183 83 -222 86 l-53 4 0 -121
c0 -621 -263 -1145 -675 -1346 -110 -54 -231 -78 -390 -77 -168 0 -330 48
-645 189 -237 107 -334 134 -407 114 -21 -6 -76 -36 -123 -66 -101 -66 -152
-84 -175 -65 -43 36 -98 189 -115 323 -16 119 -4 177 70 322 133 263 339 493
560 624 81 48 136 64 225 64 134 -1 236 -40 413 -159 192 -129 351 -189 439
-165 71 19 123 107 109 184 -14 74 -101 157 -210 200 -46 19 -76 21 -311 22
-237 2 -270 4 -375 27 -132 29 -219 69 -357 164 -51 35 -93 61 -93 58 0 -3 7
-33 15 -66 9 -33 13 -67 10 -77 -3 -9 -38 -51 -79 -93 -174 -180 -341 -262
-531 -262 -112 1 -179 22 -395 128 -145 71 -158 76 -221 76 l-66 0 -6 -372
c-9 -593 -20 -625 -310 -913 -265 -263 -442 -379 -665 -436 -136 -35 -237 -22
-372 46 -90 45 -191 120 -398 293 -245 204 -231 196 -300 187 -31 -3 -76 -11
-100 -17 -35 -9 -46 -8 -57 3 -7 8 -40 115 -74 239 -34 124 -66 235 -71 247
-8 19 12 42 186 209 l194 187 -2 1346 -3 1346 -24 60 c-42 107 -119 164 -244
181 -43 6 -46 9 -85 78 -55 95 -112 246 -112 294 0 85 61 246 107 282 12 9 52
25 89 34 185 47 448 247 579 441 55 82 103 98 215 74z m3341 -2784 c24 -9 86
-42 139 -74 52 -32 113 -68 135 -80 l40 -21 -110 6 c-226 11 -318 32 -334 76
-16 44 25 108 70 108 9 0 36 -7 60 -15z"/>
    <path d="M914 5363 c-182 -249 -389 -408 -597 -459 -55 -13 -68 -21 -73 -39
-11 -43 -1 -58 51 -75 142 -48 259 -143 313 -253 64 -131 62 -65 62 -1689 l0
-1473 -175 -175 c-136 -135 -175 -181 -175 -200 0 -32 17 -50 47 -50 54 0 148
-70 349 -260 244 -232 392 -320 538 -320 122 1 274 55 381 137 28 20 145 121
261 224 227 202 259 242 283 357 7 36 11 297 11 818 l0 765 168 170 c92 93
171 178 176 189 5 12 5 33 0 52 -7 24 -17 34 -41 40 -22 6 -81 61 -209 195
-190 197 -280 269 -377 298 -148 44 -371 -17 -502 -137 -30 -28 -117 -132
-193 -232 l-137 -181 -2 1170 -3 1170 -21 18 c-12 9 -34 17 -50 17 -24 0 -37
-12 -85 -77z m644 -2367 c121 -61 237 -227 261 -373 8 -48 11 -328 9 -953 l-3
-885 -53 2 c-100 4 -231 85 -417 257 -107 99 -209 222 -254 306 l-31 58 0 555
0 555 29 114 c76 300 165 403 341 394 46 -2 81 -11 118 -30z"/>
    <path d="M1377 2749 c-46 -27 -47 -42 -47 -688 l0 -609 42 -63 c57 -86 135
-161 199 -192 100 -50 90 -119 87 641 l-3 667 -23 57 c-31 78 -80 148 -121
175 -37 25 -102 30 -134 12z m137 -59 c48 -45 91 -128 106 -210 6 -31 10 -299
10 -661 0 -500 -2 -609 -13 -609 -42 0 -169 116 -229 209 l-28 45 0 604 c0
683 -2 661 78 662 24 0 43 -10 76 -40z"/>
    <path d="M7336 4968 c-2 -18 -9 -76 -15 -128 -20 -182 -87 -390 -183 -570
-107 -202 -242 -369 -471 -584 l-127 -120 0 -293 0 -293 240 0 240 0 0 -892
c0 -503 4 -952 10 -1028 25 -334 85 -493 227 -601 87 -67 162 -90 309 -96 338
-15 529 131 600 461 19 84 30 363 17 421 -8 36 -12 40 -41 43 -24 2 -34 -1
-38 -15 -39 -119 -124 -217 -238 -275 -117 -60 -244 -40 -331 53 -52 56 -76
103 -108 216 -21 77 -21 90 -25 896 l-3 817 365 0 365 0 41 129 c38 121 40
135 40 252 l0 124 -93 82 -92 82 -312 1 -313 0 -2 673 -3 672 -27 3 c-24 3
-27 -1 -32 -30z"/>
    <path d="M4225 3570 c-200 -52 -380 -178 -495 -345 -170 -247 -184 -558 -34
-786 71 -107 144 -159 291 -208 137 -47 299 -70 548 -81 234 -10 349 -27 452
-65 232 -88 332 -274 273 -510 -43 -175 -104 -275 -192 -319 -64 -32 -126 -34
-210 -5 -76 25 -111 45 -303 173 -212 140 -320 186 -437 186 -138 0 -326 -115
-472 -290 -166 -198 -281 -432 -248 -505 10 -20 19 -25 51 -25 22 0 68 9 103
20 34 11 75 20 89 20 46 0 155 -39 378 -135 246 -106 306 -126 450 -150 136
-23 357 -16 481 15 179 44 342 145 449 278 63 78 166 283 210 417 86 267 89
504 11 759 -51 163 -215 300 -450 374 -119 38 -224 55 -515 87 -126 14 -257
30 -290 36 -204 35 -348 123 -380 234 -45 154 85 333 226 311 21 -3 105 -33
186 -66 287 -115 386 -130 623 -96 155 23 240 56 355 138 57 41 245 208 245
218 0 14 -43 20 -145 20 -124 0 -141 5 -350 98 -221 97 -462 189 -548 207 -95
21 -265 18 -352 -5z"/>
    <path d="M6510 2646 c0 -3 35 -30 78 -62 92 -68 185 -114 230 -114 l32 0 0 90
0 90 -170 0 c-93 0 -170 -2 -170 -4z m310 -86 c0 -44 -4 -60 -14 -60 -20 0
-146 66 -181 95 l-30 25 113 0 112 0 0 -60z"/>
    <path d="M2932 2539 c-105 -21 -227 -98 -371 -235 -102 -96 -122 -133 -90
-165 15 -15 28 -19 45 -15 18 5 71 -17 212 -87 232 -115 281 -131 375 -124 59
4 86 12 171 56 123 63 290 187 294 220 5 30 -15 51 -47 51 -45 0 -120 44 -246
145 -119 95 -212 149 -270 158 -16 3 -49 1 -73 -4z"/>
    <path d="M6213 2540 c-92 -19 -199 -85 -338 -209 -130 -115 -165 -180 -109
-202 15 -5 35 -7 45 -4 11 4 83 -27 191 -81 221 -111 283 -134 357 -134 99 0
223 54 366 160 91 68 135 110 135 130 0 24 -21 40 -52 40 -37 0 -108 37 -183
95 -264 205 -308 226 -412 205z"/>
  </g>
</svg>
